<svg width="19" height="15" viewBox="0 0 19 15" fill="none" xmlns="http://www.w3.org/2000/svg">
<path d="M8 10.6667L0 6V12C0 12.7072 0.280951 13.3855 0.781048 13.8856C1.28115 14.3857 1.95942 14.6667 2.66667 14.6667H16C16.7072 14.6667 17.3855 14.3857 17.8856 13.8856C18.3857 13.3855 18.6667 12.7072 18.6667 12V6L10.6667 10.6667H8Z" fill="white"/>
<path d="M10.656 7.244L18.6667 2.66667C18.6667 1.95942 18.3857 1.28115 17.8856 0.781048C17.3855 0.280951 16.7072 0 16 0H2.66667C1.95942 0 1.28115 0.280951 0.781048 0.781048C0.280951 1.28115 0 1.95942 0 2.66667L8.01067 7.244C8.41351 7.47411 8.86941 7.59514 9.33333 7.59514C9.79726 7.59514 10.2532 7.47411 10.656 7.244Z" fill="white"/>
</svg>
