<svg width="25" height="22" viewBox="0 0 25 22" fill="none" xmlns="http://www.w3.org/2000/svg">
<path d="M9.8204 14.2369L8.7444 13.2991L1.74396 19.4188L1.88486 13.1367H0.341309L0.53025 21.4176L10.0029 21.5828V20.2334L2.81676 20.3566L9.8204 14.2369Z" fill="#0D4FA7"/>
<path d="M23.5319 19.4188L16.5315 13.2991L15.4555 14.2369L22.4591 20.3566L15.2729 20.2362V21.5828L24.7456 21.4176L24.9346 13.1367H23.391L23.5319 19.4188Z" fill="#0D4FA7"/>
<path d="M0.341309 8.53006H1.88486L1.74396 2.24799L8.7444 8.36769L9.8204 7.42985L2.81676 1.31016L10.0029 1.43334V0.0839844L0.53025 0.249154L0.341309 8.53006Z" fill="#0D4FA7"/>
<path d="M15.4555 7.42985L16.5315 8.36769L23.5319 2.24799L23.391 8.53006H24.9346L24.7456 0.249154L15.2729 0.0839844V1.43054L22.4591 1.31016L15.4555 7.42985Z" fill="#0D4FA7"/>
</svg>
