<svg width="18" height="16" viewBox="0 0 18 16" fill="none" xmlns="http://www.w3.org/2000/svg">
<path d="M12.8686 1.71429C14.4629 1.71429 15.76 3.02857 15.76 4.64571C15.76 5.37714 15.4914 6.08 14.9943 6.62286C14.9657 6.65143 14.9429 6.68571 14.9143 6.71428L9.17143 14.0743C9.06286 14.2114 8.90857 14.2857 8.73714 14.2857C8.56571 14.2857 8.41143 14.2114 8.30286 14.0743L2.56 6.72C2.53714 6.68571 2.50857 6.65714 2.48 6.62857C1.98286 6.08 1.71429 5.37714 1.71429 4.64571C1.71429 3.02857 3.01143 1.71429 4.60571 1.71429C5.71429 1.71429 6.70286 2.34286 7.19429 3.35429C7.48 3.94286 8.08 4.32 8.73714 4.32C9.39429 4.32 9.99429 3.94286 10.28 3.35429C10.7714 2.34286 11.7657 1.71429 12.8686 1.71429ZM12.8686 0C11.0514 0 9.48571 1.06286 8.73714 2.60571C7.98857 1.06286 6.42286 0 4.60571 0C2.06286 0 0 2.08 0 4.64571C0 5.85143 0.457143 6.94857 1.20571 7.77714L6.95429 15.1314C7.38286 15.68 8.04 16 8.73714 16C9.43429 16 10.0914 15.68 10.52 15.1314L16.2686 7.77714C17.0171 6.94857 17.4743 5.85714 17.4743 4.64571C17.4743 2.08 15.4114 0 12.8686 0Z" fill="#333333"/>
</svg>
