<svg width="91" height="93" viewBox="0 0 91 93" fill="none" xmlns="http://www.w3.org/2000/svg">
<path d="M45.2649 22.6997C43.7529 21.3748 41.827 20.6465 39.8353 20.6465C37.8436 20.6465 35.9176 21.3748 34.4056 22.6997L10.6167 43.5239V80.3674H69.0084V43.5239L45.2649 22.6997Z" fill="#0047BA"/>
<path d="M33.4653 56.6758H20.8542V69.564H33.4653V56.6758Z" fill="#BEDFEC"/>
<path d="M58.6951 56.6758H46.084V80.3133H58.6951V56.6758Z" fill="#BEDFEC"/>
<path d="M81.9606 22.9481L72.2387 13.0048C71.3875 12.1481 70.2408 11.668 69.0462 11.668C67.8515 11.668 66.7048 12.1481 65.8536 13.0048L56.1166 22.9481C55.3645 23.7119 54.8819 24.7094 54.7446 25.7839C54.6074 26.8584 54.8232 27.949 55.3582 28.8846L65.4517 44.5473C65.8429 45.1565 66.3763 45.6567 67.0038 46.0028C67.6313 46.3489 68.3331 46.5302 69.0462 46.5302C69.7592 46.5302 70.4611 46.3489 71.0885 46.0028C71.716 45.6567 72.2494 45.1565 72.6407 44.5473L82.6962 28.8846C83.2366 27.9523 83.4577 26.8625 83.3245 25.7874C83.1913 24.7123 82.7114 23.7133 81.9606 22.9481Z" fill="#002169"/>
<path d="M72.5269 22.8008H65.5579V29.923H72.5269V22.8008Z" fill="white"/>
</svg>
