<svg width="148" height="148" viewBox="0 0 148 148" fill="none" xmlns="http://www.w3.org/2000/svg">
<path d="M99.2832 35.3848H18.4629V135.716H99.2832V35.3848Z" fill="#002169"/>
<path d="M114.367 23.8398H33.5469V124.172H114.367V23.8398Z" fill="#0047BA"/>
<path d="M129.463 12.2832H48.6426V112.615H129.463V12.2832Z" fill="#BEDFEC"/>
<path d="M114.897 18.6113H63.208C58.76 18.6113 55.1543 22.2171 55.1543 26.665V62.7523C55.1543 67.2002 58.76 70.806 63.208 70.806H114.897C119.345 70.806 122.951 67.2002 122.951 62.7523V26.665C122.951 22.2171 119.345 18.6113 114.897 18.6113Z" fill="#0047BA"/>
<path d="M76.01 81.2266H55.1543V89.4036H76.01V81.2266Z" fill="#0047BA"/>
<path d="M104.5 93.918H55.1543V102.095H104.5V93.918Z" fill="#0047BA"/>
<path d="M92.4015 27.651C91.4695 26.8456 90.2787 26.4023 89.0468 26.4023C87.815 26.4023 86.6242 26.8456 85.6922 27.651L70.9785 40.2557V62.1843H92.9195V47.9887H100.665V62.1843H107.115V40.2557L92.4015 27.651ZM85.1742 55.734H77.4412V47.9887H85.1742V55.734Z" fill="#002169"/>
</svg>
