<svg width="148" height="149" viewBox="0 0 148 149" fill="none" xmlns="http://www.w3.org/2000/svg">
<path d="M65.9957 131.442C66.0087 132.81 66.5576 134.117 67.523 135.08C68.4884 136.043 69.7923 136.583 71.1511 136.582H76.8614C78.2287 136.582 79.54 136.036 80.5068 135.062C81.4736 134.089 82.0167 132.769 82.0167 131.392V128.723H65.9834L65.9957 131.442Z" fill="#BEDFEC"/>
<path d="M44.5969 20.5997H42.2536C42.0512 18.3696 41.0281 16.2961 39.3851 14.7863C37.7422 13.2765 35.5981 12.4395 33.3736 12.4395C31.1491 12.4395 29.005 13.2765 27.3621 14.7863C25.7191 16.2961 24.696 18.3696 24.4936 20.5997H22.1996C19.9206 20.6161 17.7405 21.5391 16.1347 23.1673C14.529 24.7956 13.6279 26.997 13.6279 29.2914V33.5255H53.1686V29.2293C53.1525 26.9456 52.2442 24.7601 50.6402 23.1453C49.0362 21.5304 46.8653 20.616 44.5969 20.5997Z" fill="#BEDFEC"/>
<path d="M13.5664 128.785H31.4374V88.7539C25.8112 93.7706 21.3084 99.934 18.2274 106.835C15.1464 113.737 13.5577 121.219 13.5664 128.785Z" fill="#BEDFEC"/>
<path d="M116.562 99.8555V128.786H134.249C134.246 122.789 132.591 116.91 129.469 111.803C126.347 106.696 121.879 102.56 116.562 99.8555Z" fill="#BEDFEC"/>
<path d="M105.919 43.0859H42.0812C40.684 43.0843 39.3002 43.36 38.0089 43.8971C36.7177 44.4343 35.5442 45.2224 34.5557 46.2164C33.5672 47.2105 32.783 48.3909 32.2479 49.6903C31.7129 50.9897 31.4375 52.3825 31.4375 53.7891V128.786H116.537V53.7891C116.538 50.9526 115.419 48.2321 113.428 46.2252C111.437 44.2183 108.736 43.0892 105.919 43.0859Z" fill="#0047BA"/>
<path d="M103.255 106.609H92.6113V112.706H103.255V106.609Z" fill="white"/>
<path d="M103.255 85.1914H92.6113V91.288H103.255V85.1914Z" fill="white"/>
<path d="M79.3155 63.7598H68.6719V69.8564H79.3155V63.7598Z" fill="white"/>
<path d="M79.3155 85.1914H68.6719V91.288H79.3155V85.1914Z" fill="white"/>
<path d="M55.3771 63.7598H44.7334V69.8564H55.3771V63.7598Z" fill="white"/>
<path d="M55.3771 106.609H44.7334V112.706H55.3771V106.609Z" fill="white"/>
<path d="M103.255 63.7598H92.6113V69.8564H103.255V63.7598Z" fill="white"/>
<path d="M55.3771 85.1914H44.7334V91.288H55.3771V85.1914Z" fill="white"/>
<path d="M55.3771 59.1406H44.7334V63.7596H55.3771V59.1406Z" fill="#002169"/>
<path d="M79.3155 59.1406H68.6719V63.7596H79.3155V59.1406Z" fill="#002169"/>
<path d="M103.255 59.1406H92.6113V63.7596H103.255V59.1406Z" fill="#002169"/>
<path d="M55.3771 80.5723H44.7334V85.1913H55.3771V80.5723Z" fill="#002169"/>
<path d="M79.3155 80.5723H68.6719V85.1913H79.3155V80.5723Z" fill="#002169"/>
<path d="M103.255 80.5723H92.6113V85.1913H103.255V80.5723Z" fill="#002169"/>
<path d="M55.3771 102.002H44.7334V106.621H55.3771V102.002Z" fill="#002169"/>
<path d="M103.255 102.002H92.6113V106.621H103.255V102.002Z" fill="#002169"/>
<path d="M81.9798 102.002H66.0205V128.785H81.9798V102.002Z" fill="white"/>
</svg>
