<svg width="93" height="93" viewBox="0 0 93 93" fill="none" xmlns="http://www.w3.org/2000/svg">
<path d="M19.53 37.3635V80.3682H30.876V64.4807H39.9513V80.3682H53.568V64.4807H62.6433V80.3682H73.9893V37.3635L52.204 21.0265C50.6378 19.8554 48.7347 19.2227 46.779 19.2227C44.8234 19.2227 42.9203 19.8554 41.354 21.0265L19.53 37.3635Z" fill="#0047BA"/>
<path d="M81.2201 78.5846C81.2174 77.6467 80.9153 76.7341 80.3576 75.9798C79.8 75.2256 79.0161 74.6693 78.1201 74.3919V73.1364C78.1241 72.5913 78.0203 72.0508 77.8146 71.5461C77.6088 71.0413 77.3052 70.5823 76.9212 70.1954C76.5372 69.8086 76.0805 69.5015 75.5773 69.292C75.0741 69.0825 74.5344 68.9746 73.9893 68.9746C72.8938 68.9746 71.8431 69.4098 71.0684 70.1845C70.2937 70.9591 69.8585 72.0098 69.8585 73.1054V74.3996C68.9625 74.677 68.1786 75.2334 67.621 75.9876C67.0633 76.7418 66.7612 77.6544 66.7585 78.5924V80.3749H81.2201V78.5846Z" fill="#002169"/>
<path d="M62.6434 64.5566H53.5681V80.3666H62.6434V64.5566Z" fill="white"/>
<path d="M39.9512 64.5566H30.876V80.3666H39.9512V64.5566Z" fill="white"/>
<path d="M62.6434 50.3758C61.4496 50.3697 60.3062 49.8939 59.4606 49.0512C58.6151 48.2085 58.1353 47.0668 58.1251 45.873C58.1169 47.0741 57.6324 48.2229 56.7781 49.0671C55.9237 49.9113 54.7692 50.382 53.5681 50.3758V53.2433H62.6434V50.3758Z" fill="white"/>
<path d="M58.1251 45.873C58.1353 47.0667 58.6151 48.2085 59.4606 49.0512C60.3062 49.8938 61.4496 50.3697 62.6434 50.3758V44.416H53.5681V50.3758C54.7692 50.3819 55.9237 49.9113 56.7781 49.0671C57.6324 48.2228 58.1169 47.0741 58.1251 45.873Z" fill="#002169"/>
<path d="M53.5681 82.2504C53.5681 83.0233 53.8751 83.7645 54.4216 84.311C54.9681 84.8574 55.7093 85.1644 56.4821 85.1644H59.7294C60.5022 85.1644 61.2434 84.8574 61.7899 84.311C62.3363 83.7645 62.6434 83.0233 62.6434 82.2504V80.3672H53.5681V82.2504Z" fill="#BEDFEC"/>
<path d="M30.876 82.2504C30.876 83.0233 31.183 83.7645 31.7295 84.311C32.276 84.8574 33.0171 85.1644 33.79 85.1644H37.0372C37.8101 85.1644 38.5513 84.8574 39.0977 84.311C39.6442 83.7645 39.9512 83.0233 39.9512 82.2504V80.3672H30.876V82.2504Z" fill="#BEDFEC"/>
<path d="M76.2833 25.6062C81.2056 25.6062 85.1958 21.616 85.1958 16.6938C85.1958 11.7715 81.2056 7.78125 76.2833 7.78125C71.3611 7.78125 67.3708 11.7715 67.3708 16.6938C67.3708 21.616 71.3611 25.6062 76.2833 25.6062Z" fill="#BEDFEC"/>
<path d="M39.9512 50.3755C38.7488 50.3755 37.5956 49.8979 36.7454 49.0476C35.8951 48.1974 35.4175 47.0442 35.4175 45.8418C35.4154 47.0449 34.936 48.1981 34.0846 49.0481C33.2331 49.8981 32.0791 50.3755 30.876 50.3755V53.243H39.9512V50.3755Z" fill="white"/>
<path d="M35.4175 45.873C35.4257 47.0701 35.9069 48.2153 36.7563 49.0588C37.6056 49.9024 38.7542 50.3758 39.9512 50.3758V44.416H30.876V50.3758C32.0738 50.3758 33.2231 49.9027 34.0737 49.0593C34.9243 48.216 35.4073 47.0708 35.4175 45.873Z" fill="#002169"/>
</svg>
