<svg width="91" height="94" viewBox="0 0 91 94" fill="none" xmlns="http://www.w3.org/2000/svg">
<path d="M57.5272 29.1229C57.2737 27.0089 56.2834 25.0595 54.7384 23.6332C53.1933 22.2068 51.1973 21.3993 49.1173 21.3591C47.8382 21.3673 46.5779 21.6753 45.433 22.2593C44.288 22.8434 43.2889 23.6881 42.5122 24.7286C42.0529 22.1629 40.7194 19.8473 38.7489 18.1939C36.7784 16.5405 34.2989 15.6565 31.7515 15.6992C29.0524 15.6475 26.4337 16.6407 24.419 18.4803C22.4043 20.3198 21.142 22.8702 20.8846 25.6214C17.4561 25.8153 14.2153 27.2862 11.7729 29.757C9.33044 32.2279 7.85504 35.528 7.62472 39.0355C7.3944 42.543 8.42506 46.0156 10.5225 48.7989C12.6199 51.5822 15.6392 53.4841 19.0115 54.146L19.2996 54.2158C19.2996 54.3944 19.2996 54.5807 19.2996 54.7593C19.2996 56.3284 19.9084 57.8331 20.9921 58.9426C22.0758 60.0521 23.5456 60.6754 25.0781 60.6754C26.6107 60.6754 28.0805 60.0521 29.1642 58.9426C30.2478 57.8331 30.8566 56.3284 30.8566 54.7593C30.8566 54.6972 30.8566 54.6273 30.8566 54.5652H54.8882C55.7087 54.5637 56.5225 54.4139 57.2921 54.1227C63.4043 52.9969 68.0225 47.8339 68.0225 41.6228C68.0225 35.4117 63.5181 30.3419 57.5272 29.1229ZM21.3168 26.3978H21.4002L21.3168 26.4444V26.3978Z" fill="#002169"/>
<path d="M19.2769 69.9452C21.4045 69.9452 23.1292 68.1968 23.1292 66.04C23.1292 63.8832 21.4045 62.1348 19.2769 62.1348C17.1493 62.1348 15.4246 63.8832 15.4246 66.04C15.4246 68.1968 17.1493 69.9452 19.2769 69.9452Z" fill="#002169"/>
<path d="M70.1155 37.6632C69.8043 35.0125 68.58 32.5623 66.6626 30.7528C64.7451 28.9434 62.2602 27.8934 59.6544 27.7914C57.0486 27.6894 54.4927 28.5422 52.4459 30.1965C50.3992 31.8509 48.9958 34.1983 48.4879 36.8169C47.7131 35.7742 46.7144 34.928 45.5691 34.3437C44.4237 33.7594 43.1624 33.4527 41.8828 33.4474C39.8027 33.4876 37.8068 34.2951 36.2617 35.7215C34.7167 37.1478 33.7264 39.0972 33.4729 41.2113C27.482 42.4225 22.9775 47.5389 22.9775 53.6723C22.9775 59.8058 27.5958 65.0387 33.708 66.1722C34.478 66.4608 35.2918 66.608 36.1119 66.607H60.7729C61.0895 67.9331 61.8438 69.1065 62.9082 69.9288C63.9725 70.7511 65.2816 71.1718 66.614 71.1198C67.9465 71.0677 69.2205 70.5461 70.2205 69.6432C71.2206 68.7402 71.8853 67.5114 72.1024 66.1644C75.4636 65.4823 78.4659 63.5669 80.5449 60.7781C82.6239 57.9893 83.6365 54.5192 83.3925 51.0199C83.1485 47.5206 81.6647 44.2329 79.2198 41.7748C76.7749 39.3167 73.5374 37.8573 70.1155 37.671V37.6632ZM69.6833 38.4396V38.4862L69.5999 38.4396H69.6833Z" fill="#0047BA"/>
<path d="M72.1707 80.4804C74.2983 80.4804 76.023 78.732 76.023 76.5752C76.023 74.4184 74.2983 72.6699 72.1707 72.6699C70.0431 72.6699 68.3184 74.4184 68.3184 76.5752C68.3184 78.732 70.0431 80.4804 72.1707 80.4804Z" fill="#0047BA"/>
<path d="M55.0551 39.6659C54.4928 39.1804 53.781 38.9141 53.0455 38.9141C52.31 38.9141 51.5981 39.1804 51.0359 39.6659L42.2468 47.2978V60.5585H55.3584V52.0183H59.9918V60.5585H63.8442V47.2978L55.0551 39.6659ZM50.7326 56.6766H46.1067V52.0183H50.7326V56.6766Z" fill="#BEDFEC"/>
</svg>
