<svg width="27" height="26" viewBox="0 0 27 26" fill="none" xmlns="http://www.w3.org/2000/svg">
<path d="M13.6021 25.9903C20.5701 25.7465 26.1406 20.0265 26.1406 13C26.1406 5.79805 20.3199 -0.0226835 13.1406 6.64608e-05C5.96137 6.64608e-05 0.140625 5.8208 0.140625 13C0.140625 20.0103 5.69163 25.7238 12.6369 25.9903C12.6401 25.9903 12.6434 25.9903 12.6466 25.9903C12.7409 25.9935 12.8351 25.9968 12.9294 25.9968C12.9456 25.9968 12.9651 25.9968 12.9814 25.9968C13.0334 25.9968 13.0854 26 13.1374 26C13.1699 26 13.2024 26 13.2381 26C13.2609 26 13.2804 26 13.3031 26C13.3876 26 13.4754 25.9967 13.5599 25.9935C13.5761 25.9935 13.5891 25.9903 13.6021 25.9903ZM13.5046 24.4628C13.4364 24.466 13.3649 24.466 13.2966 24.466C13.2674 24.466 13.2381 24.466 13.2089 24.466C13.1439 24.466 13.0821 24.466 13.0171 24.466C12.9879 24.466 12.9554 24.466 12.9261 24.466C12.8644 24.466 12.8026 24.4628 12.7409 24.4595C12.7084 24.4595 12.6759 24.4563 12.6434 24.4563C12.5849 24.453 12.5264 24.4498 12.4679 24.4465C12.4321 24.4433 12.3964 24.4433 12.3606 24.44C12.3054 24.4368 12.2534 24.4335 12.1981 24.427C12.1559 24.4238 12.1136 24.4205 12.0714 24.4173C12.0259 24.414 11.9771 24.4075 11.9316 24.4043C11.8796 24.3978 11.8276 24.3913 11.7789 24.388C11.7431 24.3848 11.7041 24.3783 11.6684 24.375C11.6034 24.3653 11.5384 24.3588 11.4766 24.349C11.4539 24.3458 11.4279 24.3425 11.4051 24.3393C11.3239 24.3263 11.2426 24.3133 11.1614 24.3003C11.1549 24.3003 11.1516 24.297 11.1451 24.297C9.76388 24.05 8.45737 23.5528 7.28087 22.8508C7.26787 22.8443 7.25812 22.8378 7.24512 22.828C7.20288 22.802 7.16387 22.7793 7.12487 22.7533C6.42937 22.3178 5.76638 21.801 5.15538 21.203C5.10987 21.1575 5.06112 21.112 5.01562 21.0633C5.41212 18.3723 9.01962 16.224 13.1406 16.224C17.2616 16.224 20.8691 18.3755 21.2656 21.0633C19.1336 23.231 16.3484 24.3653 13.5339 24.4628C13.5241 24.4628 13.5144 24.4628 13.5046 24.4628ZM8.20712 9.51929C8.21037 6.7958 10.4171 4.58906 13.1406 4.5858C15.8641 4.5858 18.0741 6.79255 18.0741 9.51929C18.0741 12.246 15.8641 14.4528 13.1406 14.4528C10.4171 14.4528 8.20712 12.246 8.20712 9.51929ZM13.1406 1.53081C19.3319 1.53081 24.6099 6.5553 24.6099 13C24.6099 15.457 23.8169 17.7743 22.4584 19.669C21.6004 17.5435 19.3254 15.8373 16.4101 15.093C18.3211 13.9718 19.6016 11.895 19.6016 9.51929C19.6016 5.9508 16.7091 3.05831 13.1406 3.05831C9.57212 3.05831 6.67962 5.9508 6.67962 9.51929C6.67962 11.895 7.96337 13.9718 9.87112 15.093C6.94937 15.8373 4.67437 17.5468 3.81637 19.6755C2.47412 17.81 1.67137 15.5123 1.67137 13C1.67137 6.8088 6.69587 1.53081 13.1406 1.53081Z" fill="white"/>
</svg>
