<svg width="170" height="40" viewBox="0 0 170 40" fill="none" xmlns="http://www.w3.org/2000/svg">
<path fill-rule="evenodd" clip-rule="evenodd" d="M52.8748 33.2117V16.5363C52.8748 14.9697 52.8046 13.8557 51.0842 12.8461C50.0387 12.2343 46.4241 10.1538 42.9042 8.12782C39.2141 6.00387 35.628 3.93978 35.2147 3.69034C33.4593 2.68076 32.1251 2.95926 30.7207 3.75996C30.5994 3.82678 30.2091 4.04747 29.6233 4.37874C28.683 4.91047 27.2388 5.72709 25.5948 6.64943C24.6117 7.17162 23.4531 7.24125 22.3998 5.91836C20.2581 3.27258 16.9578 1.60156 13.3064 1.60156C6.8463 1.60156 1.61499 6.82349 1.61499 13.2639C1.61499 18.9384 5.68769 23.6729 11.0945 24.7173C12.4989 24.8914 13.3064 26.1098 13.3064 27.2238V33.2117C13.3064 35.3701 14.6406 38.3988 18.1164 38.3988H47.7488C51.0491 38.3988 52.8748 35.8226 52.8748 33.2117ZM13.3064 5.67425C17.4844 5.67425 20.8901 9.08592 20.8901 13.2635C20.8901 17.441 17.4844 20.8527 13.3064 20.8527C9.12839 20.8527 5.72277 17.441 5.72277 13.2635C5.72277 9.0511 9.09328 5.67425 13.3064 5.67425ZM34.5478 10.5482C36.1979 10.5482 37.5321 11.9059 37.5321 13.5421C37.5321 15.2132 36.1979 16.536 34.5478 16.536C32.8976 16.536 31.5635 15.1783 31.5635 13.5421C31.5635 11.8711 32.8976 10.5482 34.5478 10.5482ZM44.7644 20.47C45.5369 20.3307 46.4848 17.6153 45.0102 17.7546C34.8008 18.4777 34.4145 18.4515 24.4538 17.7772H24.4538L24.1201 17.7546C22.6455 17.6153 23.5934 20.3307 24.3658 20.47L24.6339 20.5227C29.0118 21.3838 30.1589 21.6094 30.1589 22.8721L30.1493 23.019C30.0137 25.0875 29.8818 27.1017 27.0693 35.1958C26.4022 36.7624 29.3514 36.275 29.7025 35.4743C30.2697 34.392 30.7716 33.3776 31.2302 32.4509L31.2302 32.4508C32.2761 30.337 33.0965 28.6791 33.9507 27.7111C34.2667 27.3281 34.9338 27.3281 35.2147 27.7111C36.0689 28.6791 36.8893 30.337 37.9352 32.4508L37.9353 32.4511C38.3939 33.3778 38.8958 34.3921 39.4629 35.4743C39.814 36.275 42.7632 36.7276 42.0961 35.1958C39.2863 27.0754 39.1519 25.0565 39.0165 23.0224L39.0065 22.8721C38.9721 21.6093 40.1187 21.3837 44.4977 20.5225L44.7644 20.47Z" fill="#0047BA"/>
<path d="M169.543 18.3454L164.593 19.8075C164.172 17.7536 162.697 16.2566 159.959 16.2566C157.712 16.2566 156.097 17.6143 156.097 19.1461C156.097 20.3993 156.904 21.5134 158.835 21.8615L162.522 22.5229C167.402 23.4281 170 26.5264 170 30.2166C170 34.2549 166.559 38.3628 160.31 38.3628C153.99 38.3628 150.549 35.1948 149.742 30.2514L154.833 29.0678C155.254 31.9224 157.606 33.489 160.485 33.489C163.013 33.489 164.453 32.1661 164.453 30.5299C164.453 29.2418 163.294 28.1626 161.468 27.7797L157.747 27.0486C153.498 26.2131 150.725 23.4977 150.725 19.529C150.725 14.8641 154.973 11.3828 160.064 11.3828C166.103 11.3828 169.087 15.0034 169.543 18.3454Z" fill="white"/>
<path fill-rule="evenodd" clip-rule="evenodd" d="M147.073 24.7858C147.073 17.2662 141.035 11.3828 133.416 11.3828C125.832 11.3828 119.618 17.3706 119.653 24.925C119.653 32.4794 125.692 38.3628 133.311 38.3628C140.894 38.3628 147.073 32.375 147.073 24.7858ZM133.346 16.6393C137.875 16.6393 141.456 20.3295 141.456 24.8551C141.456 29.3808 137.91 33.1058 133.346 33.1058C128.781 33.1058 125.2 29.3808 125.2 24.8551C125.2 20.3295 128.781 16.6393 133.346 16.6393Z" fill="white"/>
<path fill-rule="evenodd" clip-rule="evenodd" d="M116.704 30.739C116.704 27.2925 114.984 25.5519 111.859 24.3682H111.894V24.3334C114.176 23.1498 115.58 21.3395 115.58 18.7285C115.58 14.0288 111.402 11.8008 107.154 11.8008H96.2V37.9801H107.295C111.964 37.9801 116.704 36.0654 116.704 30.739ZM110.209 19.5638C110.209 17.4055 108.207 16.7788 106.382 16.7788H101.501V22.4185H106.031C107.962 22.4185 110.209 21.8963 110.209 19.5638ZM107.224 32.9319C109.19 32.9319 111.367 32.3749 111.367 30.0425C111.367 27.6404 109.085 27.1182 107.049 27.1182H101.501V32.9319H107.224Z" fill="white"/>
<path fill-rule="evenodd" clip-rule="evenodd" d="M91.6707 24.7858C91.6707 17.2662 85.6319 11.3828 78.0132 11.3828C70.4295 11.3828 64.2502 17.3706 64.2502 24.925C64.2502 32.4794 70.2891 38.3628 77.9078 38.3628C85.4915 38.3628 91.6707 32.375 91.6707 24.7858ZM77.9781 16.6393C82.5072 16.6393 86.0884 20.3295 86.0884 24.8551C86.0884 29.3808 82.5072 33.1058 77.9781 33.1058C73.4139 33.1058 69.8327 29.3808 69.8327 24.8551C69.8327 20.3295 73.4139 16.6393 77.9781 16.6393Z" fill="white"/>
<path fill-rule="evenodd" clip-rule="evenodd" d="M54.4899 33.2115V16.5361C54.4899 14.9695 54.4899 12.9852 51.8918 11.4534L40.9025 5.11749L36.0223 2.29765C33.354 0.765883 31.2474 1.60139 29.9133 2.36728L24.8224 5.25674C24.366 5.50044 24.1553 5.53525 23.6638 4.94343C21.1359 1.81027 17.3792 0 13.3065 0C5.96861 0 0 5.953 0 13.2637C0 19.5997 4.52912 25.0653 10.7435 26.3185C11.5159 26.3882 11.6563 27.0148 11.6563 27.2237V33.2115C11.6563 36.4839 13.9385 40 18.1165 40H47.7489C52.1375 40 54.4899 36.5187 54.4899 33.2115ZM52.8748 16.5362V33.2463C52.8748 35.8573 51.014 38.3987 47.7137 38.3987H18.0813C14.6406 38.3987 13.2713 35.3699 13.2713 33.2115V27.1889C13.2713 26.0749 12.4989 24.8564 11.0594 24.6824C5.6877 23.638 1.615 18.9382 1.615 13.2638C1.615 6.82337 6.84631 1.60144 13.3065 1.60144C16.9578 1.60144 20.2581 3.30727 22.3998 5.91823C23.4531 7.24112 24.6117 7.1715 25.5948 6.6493C27.2388 5.72697 28.6829 4.91037 29.6233 4.37863C30.2091 4.04736 30.5994 3.82665 30.7207 3.75983C32.1602 2.95914 33.4944 2.68064 35.2148 3.69021C35.628 3.93965 39.2142 6.00379 42.9043 8.12776C46.4242 10.1537 50.0387 12.2342 51.0842 12.846C52.8046 13.8556 52.8748 14.9348 52.8748 16.5362Z" fill="white"/>
<path d="M45.0102 17.7552C46.4848 17.6159 45.5369 20.3313 44.7645 20.4706C40.1651 21.3757 38.9714 21.5846 38.9714 22.8727C39.1118 24.9963 39.1821 26.911 42.061 35.1964C42.7281 36.763 39.7789 36.2756 39.4278 35.4749C37.567 31.924 36.4084 29.1042 35.1796 27.7117C34.8987 27.3287 34.1965 27.3287 33.9156 27.7117C32.6868 29.1042 31.5282 31.924 29.6674 35.4749C29.3163 36.2756 26.3671 36.7282 27.0342 35.1964C29.9132 26.8762 29.9834 24.9614 30.1238 22.8727C30.1238 21.6194 28.9652 21.4105 24.3308 20.4706C23.5583 20.3313 22.6104 17.6159 24.085 17.7552C34.4072 18.4514 34.688 18.4862 45.0102 17.7552Z" fill="white"/>
<path d="M34.5478 10.5469C36.1979 10.5469 37.5321 11.8698 37.5321 13.5408C37.5321 15.177 36.1979 16.5347 34.5478 16.5347C32.8976 16.5347 31.5635 15.2118 31.5635 13.5408C31.5635 11.9046 32.8976 10.5469 34.5478 10.5469Z" fill="white"/>
<path d="M13.3066 5.67578C17.4846 5.67578 20.8902 9.05263 20.8902 13.265C20.8902 17.4425 17.4846 20.8542 13.3066 20.8542C9.09343 20.8542 5.72293 17.4773 5.72293 13.265C5.68782 9.08744 9.09343 5.67578 13.3066 5.67578Z" fill="#008761"/>
</svg>
