<svg width="20" height="20" viewBox="0 0 20 20" fill="none" xmlns="http://www.w3.org/2000/svg">
<path d="M17.3333 0H2.66667C1.95942 0 1.28115 0.280951 0.781048 0.781048C0.280951 1.28115 0 1.95942 0 2.66667V17.3333C0 18.0406 0.280951 18.7189 0.781048 19.219C1.28115 19.719 1.95942 20 2.66667 20H17.3333C18.0406 20 18.7189 19.719 19.219 19.219C19.719 18.7189 20 18.0406 20 17.3333V2.66667C20 1.95942 19.719 1.28115 19.219 0.781048C18.7189 0.280951 18.0406 0 17.3333 0V0ZM11.3333 17H8.66667V14.3333H11.3333V17ZM10 12.3333H8.66667V9.66667H10C10.5304 9.66667 11.0391 9.45595 11.4142 9.08088C11.7893 8.70581 12 8.1971 12 7.66667C12 7.13623 11.7893 6.62753 11.4142 6.25245C11.0391 5.87738 10.5304 5.66667 10 5.66667C9.46957 5.66667 8.96086 5.87738 8.58579 6.25245C8.21071 6.62753 8 7.13623 8 7.66667H5.33333C5.33539 6.94255 5.50497 6.22874 5.8288 5.58107C6.15264 4.9334 6.62194 4.36945 7.2 3.93333C7.79155 3.48967 8.48007 3.19293 9.20881 3.06756C9.93754 2.94219 10.6856 2.99179 11.3914 3.21227C12.0973 3.43275 12.7406 3.81779 13.2684 4.33567C13.7962 4.85355 14.1934 5.48944 14.4272 6.19094C14.661 6.89243 14.7248 7.63946 14.6133 8.37044C14.5018 9.10143 14.2182 9.79545 13.7858 10.3953C13.3534 10.9952 12.7847 11.4837 12.1265 11.8207C11.4683 12.1576 10.7394 12.3333 10 12.3333Z" fill="white"/>
</svg>
